<?xml version="1.0" encoding="UTF-8"?>
<svg width="56px" height="56px" viewBox="0 0 56 56" version="1.1" xmlns="http://www.w3.org/2000/svg" xmlns:xlink="http://www.w3.org/1999/xlink">
    <!-- Generator: Sketch 52.2 (67145) - http://www.bohemiancoding.com/sketch -->
    <title>Group 23</title>
    <desc>Created with Sketch.</desc>
    <g id="bookfast" stroke="none" stroke-width="1" fill="none" fill-rule="evenodd">
        <g id="Bookfast" transform="translate(-84.000000, -4442.000000)">
            <g id="Group-23" transform="translate(85.000000, 4443.000000)">
                <circle id="Oval-Copy-7" stroke="#C9C9C9" fill-rule="nonzero" cx="27" cy="27" r="27"></circle>
                <g id="002-coach" transform="translate(13.000000, 13.000000)" fill="#6E6E6E">
                    <path d="M26.8260985,21.1354839 C26.419748,18.7870968 24.6137458,16.9354839 22.2659428,16.4387097 L17.2542865,15.3548387 C17.2091365,15.3548387 17.2091365,15.3548387 17.1639864,15.3548387 L17.1639864,12.5096774 C18.5636382,11.516129 19.4214892,9.84516129 19.4214892,8.12903226 L19.4214892,5.41935484 C19.4214892,2.43870968 16.9833862,0 14.0034825,0 C11.0235787,0 8.58547566,2.43870968 8.58547566,5.41935484 L8.58547566,8.12903226 C8.58547566,9.89032258 9.44332673,11.516129 10.8429785,12.5096774 L10.8429785,15.3548387 C10.7978284,15.3548387 10.7978284,15.3548387 10.7526784,15.3548387 L5.74102209,16.3935484 C3.39321915,16.8903226 1.58721688,18.7419355 1.18086637,21.0903226 L0.00696490188,27.4580645 C-0.0381851547,27.683871 0.142415072,27.9548387 0.368165355,28 C0.413315411,28 0.413315411,28 0.458465468,28 L27.5484994,28 C27.8193998,28 28,27.8193548 28,27.5483871 C28,27.5032258 28,27.5032258 28,27.4580645 L26.8260985,21.1354839 Z M14.0034825,0.903225806 C16.1706852,0.903225806 17.9766874,2.39354839 18.428188,4.51612903 L9.5787769,4.51612903 C10.0302775,2.39354839 11.8362797,0.903225806 14.0034825,0.903225806 Z M18.3378879,5.41935484 L16.9833862,6.77419355 L11.0235787,6.77419355 L9.66907702,5.41935484 L18.3378879,5.41935484 Z M9.48847679,8.12903226 L9.48847679,6.50322581 L10.5269281,7.54193548 C10.6172282,7.63225806 10.7075283,7.67741935 10.8429785,7.67741935 L17.1639864,7.67741935 C17.2994366,7.67741935 17.3897367,7.63225806 17.4800368,7.54193548 L18.5184881,6.50322581 L18.5184881,8.12903226 C18.5184881,10.6129032 16.4867356,12.6451613 14.0034825,12.6451613 C11.5202293,12.6451613 9.48847679,10.6129032 9.48847679,8.12903226 Z M16.2609853,13.0516129 L16.2609853,16.0774194 L15.9449349,16.3935484 C15.4482843,16.8903226 14.7258834,17.2064516 14.0486325,17.2064516 L13.9583324,17.2064516 C13.2359315,17.2064516 12.5586806,16.9354839 12.06203,16.3935484 L11.7459796,16.0774194 L11.7459796,13.0516129 C12.4683805,13.3677419 13.2359315,13.5483871 14.0034825,13.5483871 C14.7710334,13.5483871 15.5385844,13.3677419 16.2609853,13.0516129 Z M9.93997736,16.483871 L10.7075283,16.3032258 L11.3847792,17.0258065 C12.06203,17.7032258 12.9650311,18.0645161 13.9583324,18.0645161 L14.0486325,18.0645161 C14.9967837,18.0645161 15.9449349,17.7032258 16.6221857,17.0258065 L17.3445866,16.3032258 L18.1121376,16.483871 L18.1121376,17.9290323 L15.7191846,21.0903226 C14.9064836,20.1419355 13.5068318,20.0516129 12.5586806,20.8645161 C12.4683805,20.9548387 12.4232305,21 12.3329304,21.0903226 L9.93997736,17.9290323 L9.93997736,16.483871 Z M14.0034825,23.9354839 C13.2359315,23.9354839 12.6489808,23.3483871 12.6489808,22.5806452 C12.6489808,21.8129032 13.2359315,21.2258065 14.0034825,21.2258065 C14.7710334,21.2258065 15.3579841,21.8129032 15.3579841,22.5806452 L15.3579841,25.2903226 L14.454983,25.2903226 L14.454983,24.3870968 C14.454983,24.116129 14.2743828,23.9354839 14.0034825,23.9354839 Z M6.77947339,27.0967742 L1.00026615,27.0967742 L1.18086637,26.1935484 L6.77947339,26.1935484 L6.77947339,27.0967742 Z M20.3244904,27.1419355 L7.68247453,27.1419355 L7.68247453,21.2258065 L6.77947339,21.2258065 L6.77947339,25.2903226 L1.31631654,25.2903226 L2.03871745,21.2709677 C2.3999179,19.283871 3.93501983,17.7032258 5.92162232,17.2967742 L9.03697622,16.6193548 L9.03697622,18.0645161 C9.03697622,18.1548387 9.08212628,18.2451613 9.12727634,18.3354839 L11.8362797,21.9483871 C11.7911297,22.1290323 11.7459796,22.3548387 11.7459796,22.5806452 C11.7459796,23.6645161 12.5135306,24.5677419 13.5519819,24.7935484 L13.5519819,25.7419355 C13.5519819,26.0129032 13.7325821,26.1935484 14.0034825,26.1935484 L15.8094847,26.1935484 C16.0803851,26.1935484 16.2609853,26.0129032 16.2609853,25.7419355 L16.2609853,22.5806452 C16.2609853,22.3548387 16.2158352,22.1290323 16.1706852,21.9483871 L18.8796886,18.3354839 C18.9248386,18.2451613 18.9699887,18.1548387 18.9699887,18.0645161 L18.9699887,16.6645161 L22.0853426,17.3419355 C24.0719451,17.7483871 25.607047,19.3290323 25.9682475,21.316129 L26.6906484,25.3354839 L21.2274915,25.3354839 L21.2274915,21.2709677 L20.3244904,21.2709677 L20.3244904,27.1419355 Z M21.2274915,27.0967742 L21.2274915,26.1935484 L26.8260985,26.1935484 L27.0066988,27.0967742 L21.2274915,27.0967742 Z" id="Shape" fill-rule="nonzero"></path>
                    <rect id="Rectangle" x="13" y="22" width="1" height="1"></rect>
                </g>
            </g>
        </g>
    </g>
</svg>