<?xml version="1.0" encoding="UTF-8"?>
<svg width="56px" height="56px" viewBox="0 0 56 56" version="1.1" xmlns="http://www.w3.org/2000/svg" xmlns:xlink="http://www.w3.org/1999/xlink">
    <!-- Generator: Sketch 52.2 (67145) - http://www.bohemiancoding.com/sketch -->
    <title>Group 22</title>
    <desc>Created with Sketch.</desc>
    <g id="bookfast" stroke="none" stroke-width="1" fill="none" fill-rule="evenodd">
        <g id="Bookfast" transform="translate(-84.000000, -4364.000000)" fill-rule="nonzero">
            <g id="Group-22" transform="translate(85.000000, 4365.000000)">
                <circle id="Oval-Copy-6" stroke="#C9C9C9" cx="27" cy="27" r="27"></circle>
                <g id="001-list" transform="translate(14.000000, 19.000000)" fill="#6E6E6E">
                    <path d="M0.964279412,8.00007117 C0.432,8.00007117 0,8.44807296 0,9.00006863 C0,9.55201854 0.432,10.0000661 0.964279412,10.0000661 C1.49655882,10.0000661 1.92855882,9.55201854 1.92855882,9.00006863 C1.92855882,8.44807296 1.49655882,8.00007117 0.964279412,8.00007117 Z M0.964279412,16.0000966 C0.432,16.0000966 0,16.4480526 0,17.000094 C0,17.552044 0.432,18 0.964279412,18 C1.49655882,18 1.92855882,17.552044 1.92855882,17.000094 C1.92855882,16.4480526 1.49655882,16.0000966 0.964279412,16.0000966 Z M6.75,1.99999492 L26.0357206,1.99999492 C26.568,1.99999492 27,1.55199313 27,0.999997458 C27,0.448001789 26.568,0 26.0357206,0 L6.75,0 C6.21772059,0 5.78572059,0.448001789 5.78572059,0.999997458 C5.78572059,1.55199313 6.21772059,1.99999492 6.75,1.99999492 Z M0.964279412,0 C0.432,0 0,0.448001789 0,0.999997458 C0,1.55199313 0.432,1.99999492 0.964279412,1.99999492 C1.49655882,1.99999492 1.92855882,1.55199313 1.92855882,0.999997458 C1.92855882,0.448001789 1.49655882,0 0.964279412,0 Z M26.0357206,16.0000966 L6.75,16.0000966 C6.21772059,16.0000966 5.78572059,16.4480526 5.78572059,17.000094 C5.78572059,17.552044 6.21772059,18 6.75,18 L26.0357206,18 C26.568,18 27,17.552044 27,17.000094 C27,16.4480526 26.568,16.0000966 26.0357206,16.0000966 Z M26.0357206,8.00007117 L6.75,8.00007117 C6.21772059,8.00007117 5.78572059,8.44807296 5.78572059,9.00006863 C5.78572059,9.55201854 6.21772059,10.0000661 6.75,10.0000661 L26.0357206,10.0000661 C26.568,10.0000661 27,9.55201854 27,9.00006863 C27,8.44807296 26.568,8.00007117 26.0357206,8.00007117 Z" id="Shape"></path>
                </g>
            </g>
        </g>
    </g>
</svg>