<?xml version="1.0" encoding="UTF-8"?>
<svg width="56px" height="56px" viewBox="0 0 56 56" version="1.1" xmlns="http://www.w3.org/2000/svg" xmlns:xlink="http://www.w3.org/1999/xlink">
    <!-- Generator: Sketch 52.2 (67145) - http://www.bohemiancoding.com/sketch -->
    <title>Group 24</title>
    <desc>Created with Sketch.</desc>
    <g id="bookfast" stroke="none" stroke-width="1" fill="none" fill-rule="evenodd">
        <g id="Bookfast" transform="translate(-84.000000, -4520.000000)">
            <g id="Group-24" transform="translate(85.000000, 4521.000000)">
                <circle id="Oval-Copy-9" stroke="#C9C9C9" fill-rule="nonzero" cx="27" cy="27" r="27"></circle>
                <g id="003-good" transform="translate(12.000000, 14.000000)" fill="#6E6E6E">
                    <path d="M30.1719004,15.5023972 C30.1719004,15.0149933 30.0568008,14.5459463 29.8356836,14.1219683 C30.5643047,13.5621124 31,12.6925672 31,11.7487404 C31,10.0998489 29.6682109,8.75845132 28.0312656,8.75845132 L19.9929414,8.75845132 C20.6852344,6.97520665 21.062502,4.81091846 21.062502,2.57326353 C21.062502,1.15435209 19.9164707,0 18.5077871,0 C17.0991035,0 15.9531328,1.15435209 15.9531328,2.57326353 C15.9531328,7.64496017 12.4406875,11.4400268 7.21288867,12.016654 C7.17704492,12.0206181 7.14271484,12.0286683 7.10995898,12.0398289 C6.76623437,11.7271512 6.31110352,11.5363245 5.8125,11.5363245 L1.9375,11.5363245 C0.869150391,11.5363245 0,12.4117854 0,13.4878918 L0,22.7578368 C0,23.8339432 0.869150391,24.7094041 1.9375,24.7094041 L5.8125,24.7094041 C6.40361914,24.7094041 6.9334043,24.4410636 7.28911719,24.0193421 C8.52869336,24.2015087 9.33221094,24.6007872 10.1086641,24.9879294 C11.1067187,25.4854571 12.1388008,26 13.9531484,26 L25.5469062,26 C27.1839121,26 28.5156406,24.6585414 28.5156406,23.0097109 C28.5156406,22.522368 28.400541,22.05326 28.1794238,21.629282 C28.9080449,21.0694261 29.3437402,20.1998808 29.3437402,19.2560541 C29.3437402,18.7687111 29.2286406,18.2996031 29.0075234,17.8756251 C29.7361445,17.3157692 30.1719004,16.446163 30.1719004,15.5023972 Z M28.1882637,17.2524043 L27.3671875,17.2524043 C27.0996914,17.2524043 26.8828125,17.4708578 26.8828125,17.7402961 C26.8828125,18.0097344 27.0996914,18.228188 27.3671875,18.228188 L28.091207,18.228188 C28.276541,18.539219 28.3749902,18.8897083 28.3749902,19.2560541 C28.3749902,19.9943564 27.9778027,20.6645978 27.3358242,21.0197221 L26.4549883,21.0197221 C26.1874922,21.0197221 25.9706133,21.2381757 25.9706133,21.5076139 C25.9706133,21.7770522 26.1874922,21.9955058 26.4549883,21.9955058 L27.2712207,21.9955058 C27.4512266,22.3031216 27.5468906,22.648671 27.5468906,23.0096499 C27.5468906,24.1204577 26.649707,25.0241553 25.5469063,25.0241553 L13.9531484,25.0241553 C12.3654277,25.0241553 11.5187402,24.6020679 10.5384258,24.1133223 C9.7901875,23.740268 8.94997852,23.3228765 7.71936328,23.1013126 C7.73910156,22.9897074 7.75,22.8750528 7.75,22.7578368 L7.75,15.3784727 C7.75,15.1090344 7.53312109,14.8905809 7.265625,14.8905809 C6.99812891,14.8905809 6.78125,15.1090344 6.78125,15.3784727 L6.78125,22.7578368 C6.78125,23.2958595 6.34664453,23.7336204 5.8125,23.7336204 L1.9375,23.7336204 C1.40335547,23.7336204 0.96875,23.2958595 0.96875,22.7578368 L0.96875,13.4878918 C0.96875,12.9498691 1.40335547,12.5121082 1.9375,12.5121082 L5.8125,12.5121082 C6.34664453,12.5121082 6.78125,12.9498691 6.78125,13.4878918 C6.78125,13.7573301 6.99812891,13.9757837 7.265625,13.9757837 C7.53312109,13.9757837 7.75,13.7573301 7.75,13.4878918 C7.75,13.2985288 7.72257227,13.1155694 7.67237891,12.9422458 C10.3835469,12.5698624 12.6866895,11.3977632 14.3497305,9.53840741 C16.0084121,7.68393053 16.9218223,5.2103799 16.9218223,2.57326353 C16.9218223,1.6924358 17.633248,0.975783676 18.5077266,0.975783676 C19.3822051,0.975783676 20.0936914,1.69237481 20.0936914,2.57326353 C20.0936914,4.97033711 19.6417695,7.26702696 18.8211172,9.04026984 C18.7080762,9.28445971 18.8130039,9.57475535 19.0554941,9.68861711 C19.1344473,9.72569689 19.2181836,9.73911391 19.2991953,9.73246639 C19.3113652,9.73338118 19.3234746,9.73435697 19.3358262,9.73435697 L28.0311445,9.73435697 C29.1339453,9.73435697 30.0311289,10.6380546 30.0311289,11.7488624 C30.0311289,12.4683809 29.654043,13.1234366 29.0406426,13.4850865 L28.1339531,13.4850865 C27.866457,13.4850865 27.6495781,13.70354 27.6495781,13.9729783 C27.6495781,14.2424166 27.866457,14.4608701 28.1339531,14.4608701 L28.9110723,14.4608701 C29.1017344,14.7752554 29.2030293,15.1307456 29.2030293,15.5024582 C29.2031504,16.2313686 28.8158926,16.8938648 28.1882637,17.2524043 Z" id="Shape" fill-rule="nonzero"></path>
                    <path d="M25.3476045,17 L24.6523955,17 C24.2921101,17 24,17.223875 24,17.5 C24,17.776125 24.2921101,18 24.6523955,18 L25.3476045,18 C25.7078899,18 26,17.776125 26,17.5 C26,17.223875 25.7078899,17 25.3476045,17 Z" id="Path"></path>
                    <path d="M26.3476045,14 L25.6523955,14 C25.2921101,14 25,14.223875 25,14.5 C25,14.776125 25.2921101,15 25.6523955,15 L26.3476045,15 C26.7078899,15 27,14.776125 27,14.5 C27,14.223875 26.7078899,14 26.3476045,14 Z" id="Path"></path>
                    <path d="M24.3476045,21 L23.6523955,21 C23.2921101,21 23,21.223875 23,21.5 C23,21.776125 23.2921101,22 23.6523955,22 L24.3476045,22 C24.7078899,22 25,21.776125 25,21.5 C25,21.223875 24.7079715,21 24.3476045,21 Z" id="Path"></path>
                    <path d="M5,14 C4.448625,14 4,14.448625 4,15 C4,15.551375 4.448625,16 5,16 C5.551375,16 6,15.551375 6,15 C6,14.448625 5.551375,14 5,14 Z" id="Path"></path>
                </g>
            </g>
        </g>
    </g>
</svg>