<?xml version="1.0" encoding="UTF-8"?>
<svg width="56px" height="56px" viewBox="0 0 56 56" version="1.1" xmlns="http://www.w3.org/2000/svg" xmlns:xlink="http://www.w3.org/1999/xlink">
    <!-- Generator: Sketch 52.2 (67145) - http://www.bohemiancoding.com/sketch -->
    <title>Group 26</title>
    <desc>Created with Sketch.</desc>
    <g id="bookfast" stroke="none" stroke-width="1" fill="none" fill-rule="evenodd">
        <g id="Bookfast" transform="translate(-84.000000, -4676.000000)">
            <g id="Group-26" transform="translate(85.000000, 4677.000000)">
                <circle id="Oval-Copy-10" stroke="#C9C9C9" fill-rule="nonzero" cx="27" cy="27" r="27"></circle>
                <g id="005-calendar-icons" transform="translate(14.000000, 14.000000)" fill="#6E6E6E">
                    <path d="M23.7301587,0.992366412 L22.8032381,0.992366412 C22.8271746,0.918534351 22.8519365,0.84470229 22.8519365,0.762931298 C22.8519365,0.342167939 22.4953651,8.81398432e-17 22.0570794,8.81398432e-17 C21.6187937,8.81398432e-17 21.263873,0.342167939 21.263873,0.762931298 C21.263873,0.84470229 21.2869841,0.918534351 21.3125714,0.992366412 L18.2751111,0.992366412 C18.2990476,0.918534351 18.3238095,0.84470229 18.3238095,0.762931298 C18.3221587,0.342167939 17.9672381,0 17.528127,0 C17.0906667,0 16.7349206,0.342167939 16.7349206,0.762931298 C16.7349206,0.84470229 16.7588571,0.918534351 16.783619,0.992366412 L13.7445079,0.992366412 C13.7684444,0.918534351 13.7932063,0.84470229 13.7932063,0.762931298 C13.7932063,0.342167939 13.4382857,8.81398432e-17 13,8.81398432e-17 C12.5617143,8.81398432e-17 12.2067937,0.342167939 12.2067937,0.762931298 C12.2067937,0.84470229 12.2299048,0.918534351 12.2546667,0.992366412 L9.21638095,0.992366412 C9.24031746,0.918534351 9.26507937,0.84470229 9.26507937,0.762931298 C9.26507937,0.342167939 8.90933333,0 8.47187302,0 C8.0335873,0 7.67784127,0.342167939 7.67784127,0.762931298 C7.67784127,0.84470229 7.70095238,0.918534351 7.72571429,0.992366412 L4.68825397,0.992366412 C4.71301587,0.918534351 4.73695238,0.84470229 4.73695238,0.762931298 C4.73695238,0.341374046 4.38203175,0 3.94374603,0 C3.50546032,0 3.14971429,0.342167939 3.14971429,0.762931298 C3.14971429,0.84470229 3.1728254,0.918534351 3.1975873,0.992366412 L2.26984127,0.992366412 C1.01688889,0.992366412 0,1.97123664 0,3.17557252 L0,23.8167939 C0,25.0219237 1.01688889,26 2.26984127,26 L21.1673016,26 L26,21.3517557 L26,3.17557252 C26,1.97123664 24.9831111,0.992366412 23.7301587,0.992366412 Z M24.7619048,20.8579542 L24.5052063,21.104855 L22.5613968,21.104855 C21.6518095,21.104855 20.9106032,21.8193588 20.9106032,22.6926412 L20.9106032,24.5622595 L20.6539048,24.8091603 L2.26984127,24.8091603 C1.70114286,24.8091603 1.23809524,24.3637863 1.23809524,23.8167939 L1.23809524,3.96946565 L24.7619048,3.96946565 L24.7619048,20.8579542 Z" id="Shape" fill-rule="nonzero"></path>
                    <rect id="Rectangle" x="8.66666667" y="13.9285714" width="8.66666667" height="1.85714286"></rect>
                    <path d="M13.0004153,22.2857143 C17.5135438,22.2857143 21.1851852,18.7453826 21.1851852,14.3928571 C21.1851852,10.0403317 17.5135438,6.5 13.0004153,6.5 C8.48645621,6.5 4.81481481,10.0403317 4.81481481,14.3928571 C4.81481481,18.7453826 8.48645621,22.2857143 13.0004153,22.2857143 Z M13.0004153,7.71428571 C16.8190885,7.71428571 19.925862,10.710752 19.925862,14.3928571 C19.925862,18.0757633 16.8190885,21.0714286 13.0004153,21.0714286 C9.18091146,21.0714286 6.07330729,18.0757633 6.07330729,14.3928571 C6.07330729,10.710752 9.18091146,7.71428571 13.0004153,7.71428571 Z" id="Shape" fill-rule="nonzero"></path>
                </g>
            </g>
        </g>
    </g>
</svg>