<?xml version="1.0" encoding="UTF-8"?>
<svg width="56px" height="56px" viewBox="0 0 56 56" version="1.1" xmlns="http://www.w3.org/2000/svg" xmlns:xlink="http://www.w3.org/1999/xlink">
    <!-- Generator: Sketch 52.2 (67145) - http://www.bohemiancoding.com/sketch -->
    <title>Group 25</title>
    <desc>Created with Sketch.</desc>
    <g id="bookfast" stroke="none" stroke-width="1" fill="none" fill-rule="evenodd">
        <g id="Bookfast" transform="translate(-84.000000, -4598.000000)">
            <g id="Group-25" transform="translate(85.000000, 4599.000000)">
                <circle id="Oval-Copy-8" stroke="#C9C9C9" fill-rule="nonzero" cx="27" cy="27" r="27"></circle>
                <g id="004-survey" transform="translate(14.000000, 14.000000)" fill="#6E6E6E">
                    <circle id="Oval" cx="2.5" cy="3.5" r="1"></circle>
                    <circle id="Oval" cx="5.5" cy="3.5" r="1"></circle>
                    <circle id="Oval" cx="7.5" cy="3.5" r="1"></circle>
                    <path d="M6.58334928,12 L19.4166507,12 C19.739087,12 20,11.7763664 20,11.5 C20,11.2236336 19.739087,11 19.4166507,11 L6.58334928,11 C6.26091304,11 6,11.2236336 6,11.5 C6,11.7763664 6.26096773,12 6.58334928,12 Z" id="Path"></path>
                    <path d="M13.4285561,18 L6.57144388,18 C6.25558814,18 6,18.2236336 6,18.5 C6,18.7763664 6.25558814,19 6.57144388,19 L13.4285561,19 C13.7444119,19 14,18.7763664 14,18.5 C14,18.2236336 13.7444119,18 13.4285561,18 Z" id="Path"></path>
                    <path d="M25.7669453,7.09089902 C25.7331484,7.09089902 25.7003906,7.09948565 25.6667031,7.10109219 L25.6667031,2.36365147 C25.6667031,1.0600894 24.6196562,0 23.3333516,0 L2.33335156,0 C1.04704687,0 0,1.0600894 0,2.36365147 L0,23.6363485 C0,24.9399106 1.04704687,26 2.33335156,26 L23.3333516,26 C24.6196562,26 25.6667031,24.939966 25.6667031,23.6363485 L25.6667031,12.6534877 L27.3460469,10.9526137 C27.3460469,10.9526137 27.3460469,10.9526137 27.3460469,10.9520597 C27.7618906,10.530816 28,9.94797735 28,9.3530066 C28,8.10539616 26.9985625,7.09089902 25.7669453,7.09089902 Z M1.16664844,2.36365147 C1.16664844,1.71217512 1.689625,1.18185343 2.33329687,1.18185343 L23.3332969,1.18185343 C23.9770781,1.18185343 24.5,1.71217512 24.5,2.36365147 L24.5,4.72730294 L1.16664844,4.72730294 L1.16664844,2.36365147 Z M24.5,23.6363485 C24.5,24.2878249 23.9770234,24.8181466 23.3333516,24.8181466 L2.33335156,24.8181466 C1.689625,24.8181466 1.16670312,24.2878249 1.16670312,23.6363485 L1.16670312,5.90910098 L24.5,5.90910098 L24.5,7.49458168 C24.3892578,7.57169521 24.2833281,7.65650901 24.1878437,7.7533995 L17.8408125,14.1818534 L6.41664844,14.1818534 C6.09421094,14.1818534 5.83329687,14.4461556 5.83329687,14.7727802 C5.83329687,15.0994047 6.09421094,15.3637069 6.41664844,15.3637069 L16.9048906,15.3637069 L16.3447266,18.2022824 C16.3060078,18.3961742 16.3663828,18.5964367 16.50425,18.7360387 C16.6147734,18.8479974 16.7640156,18.9091564 16.9167031,18.9091564 C16.9543281,18.9091564 16.9930469,18.9051124 17.0306172,18.8976337 L19.9461719,18.306707 C20.0600859,18.2836061 20.1637734,18.2276545 20.2446562,18.145112 L24.5,13.835175 L24.5,23.6363485 Z M19.5450937,17.1830764 L17.6606719,17.5650986 L18.0377969,15.6538798 L23.3330781,10.2898362 L24.8417422,11.8180912 L19.5450937,17.1830764 Z M26.5211406,10.1169956 L25.6666484,10.9825838 L24.157875,9.4542181 L25.0126406,8.58835286 C25.2108828,8.38809036 25.4854687,8.27269706 25.7668906,8.27269706 C26.3547812,8.27269706 26.8332969,8.75742648 26.8332969,9.3529512 C26.8333516,9.63691955 26.7193828,9.91562512 26.5211406,10.1169956 Z" id="Shape" fill-rule="nonzero"></path>
                </g>
            </g>
        </g>
    </g>
</svg>