<?xml version="1.0" encoding="UTF-8"?>
<svg width="56px" height="56px" viewBox="0 0 56 56" version="1.1" xmlns="http://www.w3.org/2000/svg" xmlns:xlink="http://www.w3.org/1999/xlink">
    <!-- Generator: Sketch 52.2 (67145) - http://www.bohemiancoding.com/sketch -->
    <title>Group 19</title>
    <desc>Created with Sketch.</desc>
    <g id="bookfast" stroke="none" stroke-width="1" fill="none" fill-rule="evenodd">
        <g id="Bookfast" transform="translate(-84.000000, -4024.000000)">
            <g id="Group-19" transform="translate(85.000000, 4025.000000)">
                <circle id="Oval-Copy-3" stroke="#C9C9C9" fill-rule="nonzero" cx="27" cy="27" r="27"></circle>
                <g id="003-script" transform="translate(11.000000, 14.000000)" fill="#6E6E6E">
                    <path d="M23.5276471,5 L13.4723529,5 C13.2114731,5 13,5.22385077 13,5.5 C13,5.77614923 13.2114731,6 13.4723529,6 L23.5275842,6 C23.788464,6 24,5.77614923 24,5.5 C24,5.22378414 23.7885269,5 23.5276471,5 Z" id="Path"></path>
                    <path d="M10.6276912,5 L9.37230876,5 C9.1666832,5 9,5.22385077 9,5.5 C9,5.77614923 9.16663359,6 9.37230876,6 L10.6276912,6 C10.8333168,6 11,5.77614923 11,5.5 C11,5.22385077 10.8333168,5 10.6276912,5 Z" id="Path"></path>
                    <path d="M14.5184421,19 L9.48155792,19 C9.21559422,19 9,19.2238508 9,19.5 C9,19.7762159 9.21559422,20 9.48155792,20 L14.5184421,20 C14.7844058,20 15,19.7761492 15,19.5 C15,19.2237841 14.7844058,19 14.5184421,19 Z" id="Path"></path>
                    <path d="M16.5197031,15 L9.48029695,15 C9.21502968,15 9,15.2238508 9,15.5 C9,15.7762159 9.21502968,16 9.48029695,16 L16.5197031,16 C16.7849063,16 17,15.7761492 17,15.5 C17,15.2237841 16.7849703,15 16.5197031,15 Z" id="Path"></path>
                    <path d="M19.4956006,10 L8.50439935,10 C8.22582036,10 8,10.2238508 8,10.5 C8,10.7761492 8.22582036,11 8.50439935,11 L19.4956006,11 C19.7741796,11.0000666 20,10.7762158 20,10.5 C20,10.2237841 19.7741796,10 19.4956006,10 Z" id="Path"></path>
                    <path d="M28.7775477,0 L8.74468215,0 C6.97022637,0 5.5266484,1.43501407 5.5266484,3.19886414 L5.5266484,22.157588 L0.484685439,22.157588 C0.355318222,22.157588 0.231247116,22.2090128 0.140244416,22.3003704 C0.0491771285,22.3917922 -0.00132969316,22.5155711 2.6628139e-05,22.6441651 C0.0191442998,24.557346 1.40226909,26 3.21728534,26 L23.2501509,26 L23.3111854,26 C25.0856412,26 26.5292191,24.5649859 26.5292191,22.8011359 L26.5292191,16.9625315 C26.5292191,16.6964196 26.3121431,16.4807694 26.0444311,16.4807694 C25.7767191,16.4807694 25.5597077,16.6964838 25.5597077,16.9625957 L25.5597077,22.8012001 C25.5597077,24.0337251 24.5509922,25.0363475 23.3111854,25.0363475 L23.2501509,25.0363475 C21.982378,25.0363475 21.0160314,24.0038076 21.002339,22.6346634 C20.9996909,22.3704134 20.7834546,22.157588 20.5176156,22.157588 L6.49635354,22.157588 L6.49635354,3.19879994 C6.49635354,1.96627488 7.50506907,0.963652526 8.74487591,0.963652526 L26.4776789,0.963652526 C26.4634698,0.978097684 26.4500358,0.993249049 26.4360851,1.00801521 C26.4191633,1.02592721 26.4020479,1.0436466 26.3855136,1.0618796 C26.3680106,1.08120401 26.3511535,1.10104203 26.3341672,1.12081584 C26.3178268,1.13975505 26.3013571,1.15850165 26.2854688,1.17782607 C26.2689992,1.19785668 26.25324,1.21840091 26.2372225,1.23881673 C26.2217217,1.25859055 26.2060917,1.27817176 26.191043,1.29833078 C26.1756714,1.31900341 26.1609456,1.34012544 26.1460261,1.36118327 C26.1313649,1.38185589 26.1165099,1.40240012 26.1023008,1.42339375 C26.0880272,1.44464418 26.0743994,1.46634402 26.0606424,1.48797965 C26.0468854,1.50948689 26.0329347,1.53080152 26.0196944,1.55262976 C26.0063896,1.5745864 25.9938597,1.59699244 25.9811361,1.61927009 C25.9684126,1.64141933 25.955366,1.66344017 25.9431591,1.68597462 C25.9308877,1.70850906 25.9195204,1.73155711 25.9078302,1.75447676 C25.89614,1.77733221 25.8841269,1.79999506 25.873018,1.82310731 C25.8618445,1.84634797 25.8515752,1.87003803 25.8409184,1.89353548 C25.8303261,1.91696874 25.819411,1.94020939 25.8094,1.96389945 C25.7992599,1.98784631 25.7900886,2.01224258 25.7805298,2.03644624 C25.7711001,2.06032891 25.7613475,2.08401896 25.7524991,2.10815843 C25.7433924,2.1329399 25.7353191,2.15817077 25.7268582,2.18327325 C25.7187203,2.20741271 25.7101302,2.23129537 25.702509,2.25569164 C25.6945002,2.28137192 25.6875895,2.30750161 25.6802266,2.33350289 C25.6733804,2.35777075 25.6660175,2.38184602 25.659688,2.40637068 C25.6527772,2.43333498 25.6469644,2.46068448 25.6406995,2.48790558 C25.6352096,2.51185244 25.6291385,2.5356709 25.6242299,2.55981036 C25.6184171,2.58812287 25.6138314,2.61675638 25.6087937,2.6453257 C25.6046601,2.66895155 25.5998807,2.69232061 25.5962638,2.71607487 C25.5916136,2.7465702 25.5882551,2.77745074 25.5844445,2.80820287 C25.5817318,2.83041632 25.5783087,2.85237296 25.5760482,2.8747148 C25.5725605,2.90912638 25.5704291,2.94392316 25.5680394,2.97865574 C25.5667477,2.99772334 25.5646809,3.01666255 25.5637121,3.03579436 C25.5609995,3.08978715 25.5595786,3.14416514 25.5595786,3.19886414 L25.5595786,3.36058571 L25.5595786,7.47540125 C25.5595786,7.74157736 25.77659,7.95722752 26.044302,7.95722752 C26.312014,7.95722752 26.5290254,7.74151316 26.5290254,7.47540125 L26.5290254,3.84241197 L31.5153146,3.84241197 C31.6446818,3.84241197 31.7687529,3.79098721 31.8597556,3.69962961 C31.9508229,3.60820781 32.0013297,3.48442886 31.9999734,3.35583486 C31.9808557,1.44265396 30.5977309,0 28.7775477,0 Z M20.0666711,23.1213048 C20.0733235,23.1711887 20.0810739,23.220559 20.0896639,23.2696084 C20.0925058,23.2860438 20.0959934,23.3021581 20.0990936,23.3185293 C20.1052293,23.3509507 20.1113651,23.383372 20.1183404,23.415344 C20.122474,23.43454 20.1271888,23.453415 20.1315807,23.4724184 C20.1382977,23.5012445 20.1450794,23.5300706 20.1525068,23.5585115 C20.1576738,23.5784779 20.1632928,23.5982518 20.1687827,23.6180256 C20.1763393,23.6451183 20.1839606,23.6721468 20.1920985,23.6989185 C20.1981696,23.7190133 20.2045637,23.7389797 20.2110224,23.7588819 C20.2194187,23.7849474 20.2281379,23.8108845 20.2371154,23.836629 C20.2440262,23.856467 20.2510662,23.8762408 20.2583645,23.8958862 C20.2677941,23.9214381 20.2775467,23.9467332 20.2875577,23.9718998 C20.2951789,23.9910317 20.3027356,24.0101635 20.3106151,24.0291027 C20.321272,24.0545904 20.3323809,24.079757 20.3435544,24.1049237 C20.3515631,24.1229641 20.3595073,24.1410687 20.367839,24.1589165 C20.3801105,24.1852388 20.3930278,24.2111759 20.4058806,24.2370487 C20.4138893,24.2530989 20.4215751,24.2692775 20.4298422,24.2851993 C20.4456014,24.3155662 20.462071,24.3454195 20.4786698,24.3752087 C20.4846764,24.3860586 20.4904246,24.3971011 20.4965603,24.4078226 C20.5196178,24.4481406 20.5434503,24.4878167 20.5680578,24.5268507 C20.5738061,24.5359672 20.5799418,24.5446985 20.5857546,24.5537508 C20.6049369,24.5836041 20.6243775,24.6132649 20.6444639,24.6423478 C20.6537644,24.6557657 20.6634524,24.6687985 20.6728821,24.682088 C20.6901913,24.7063559 20.7075006,24.7305595 20.7254557,24.7542496 C20.7362417,24.7685021 20.747286,24.7823695 20.7582658,24.7964295 C20.775575,24.8185787 20.7930134,24.8406637 20.8108394,24.8622352 C20.8225941,24.8764235 20.8345427,24.8904193 20.8464912,24.904415 C20.8643172,24.9253445 20.8824014,24.9460171 20.9007441,24.9664329 C20.9130801,24.9801719 20.92561,24.9937182 20.9382044,25.0072004 C20.9471819,25.0168305 20.9558366,25.0268458 20.9649433,25.0363475 L3.21722075,25.0363475 C2.10477894,25.0363475 1.22439724,24.2412218 1.01610504,23.1213048 L20.0666711,23.1213048 Z M26.5529225,2.87863104 C26.5531162,2.87535681 26.5534391,2.87195417 26.5538913,2.86861573 C26.5560872,2.85391377 26.5587998,2.83934021 26.5613187,2.82476666 C26.5648064,2.80422243 26.5683587,2.78367821 26.5724276,2.76326238 C26.5755278,2.74772581 26.5790155,2.73231765 26.5824386,2.71690948 C26.5867013,2.69777767 26.5910286,2.67871006 26.5957435,2.65977085 C26.5997478,2.64384908 26.6040106,2.62799151 26.6083379,2.61219813 C26.613311,2.59415774 26.6184134,2.57611734 26.6237741,2.55826954 C26.6286181,2.54209097 26.6337204,2.52604079 26.638952,2.51005482 C26.6445064,2.49297743 26.6503192,2.47602845 26.6563258,2.45907946 C26.6621386,2.44270828 26.668016,2.4263371 26.6742163,2.41015853 C26.6802875,2.39417255 26.6866816,2.37837918 26.6931402,2.36252161 C26.6999218,2.34582942 26.7067035,2.32920144 26.7139372,2.31270186 C26.7203313,2.2979999 26.7271129,2.28349054 26.7338299,2.26898118 C26.741774,2.2518396 26.7496536,2.23456961 26.7579853,2.21768482 C26.7641856,2.20510149 26.7708381,2.19277495 26.7772967,2.18032002 C26.7868556,2.16183021 26.7962852,2.14334041 26.8063608,2.12517161 C26.810236,2.11810954 26.8144987,2.11130426 26.8184385,2.10430639 C26.8631971,2.02553213 26.9123476,1.94951849 26.9660838,1.8770359 C26.9666004,1.8763297 26.9670526,1.87568769 26.9675692,1.87498148 C26.9848785,1.85174083 27.002769,1.82894958 27.0209179,1.80635093 C27.0238243,1.80275569 27.0266015,1.79909625 27.0295079,1.79550101 C27.0472693,1.77367277 27.0656119,1.75229394 27.0841483,1.73117191 C27.0875714,1.72725567 27.0909945,1.72327522 27.0944822,1.71935898 C27.1133415,1.69817275 27.1326529,1.67743592 27.1523519,1.6569559 C27.1555812,1.65361746 27.158746,1.65021483 27.1620399,1.64687639 C27.1824493,1.62594696 27.2032462,1.60533854 27.2244307,1.58517952 C27.2268204,1.58293249 27.2292101,1.58068547 27.2315998,1.57837424 C27.2539468,1.55731641 27.2766813,1.53664378 27.2999326,1.51648476 C27.3007076,1.51577856 27.3015472,1.51513655 27.3023223,1.51443034 C27.5991629,1.25743494 27.9644654,1.07619636 28.3676158,1.00159514 C28.3678095,1.00153094 28.3680679,1.00153094 28.3682616,1.00146674 C28.4012654,0.995367672 28.4345922,0.989974814 28.4681127,0.985352363 C28.4701149,0.98509556 28.4721171,0.984838757 28.4741193,0.984581955 C28.5060897,0.980216307 28.5382539,0.976492666 28.5706118,0.973475233 C28.5755204,0.973025828 28.5804936,0.972769026 28.5854668,0.972383821 C28.6151121,0.969815793 28.644822,0.96763297 28.6747902,0.966220554 C28.6920995,0.965450146 28.7095379,0.965321744 28.7269763,0.964872339 C28.7457065,0.964422934 28.764372,0.963588325 28.7832314,0.963588325 C29.8956732,0.963588325 30.7760549,1.75871401 30.9843471,2.87863104 L26.5529225,2.87863104 Z" id="Shape" fill-rule="nonzero"></path>
                    <path d="M31.9996158,10.4280358 C31.9995581,10.423109 31.9994429,10.4181823 31.9992701,10.4131989 C31.9975416,10.3732188 31.9902245,10.3347111 31.9779525,10.298242 C31.9773764,10.2964298 31.9771459,10.2945611 31.9765121,10.2928056 C31.9759936,10.2913332 31.9751294,10.2899741 31.9746108,10.2885018 C31.9678123,10.2698708 31.9599766,10.2517495 31.9507582,10.234421 C31.9496059,10.2322691 31.9482808,10.2302871 31.9471285,10.2281352 C31.9386015,10.2128454 31.9291526,10.1981784 31.9188395,10.1840778 C31.9166502,10.1810765 31.914576,10.1779619 31.912329,10.1750172 C31.9009789,10.1602936 31.8886493,10.1463629 31.8754554,10.1332249 C31.8725747,10.1303368 31.8695211,10.1276753 31.8665827,10.1249004 C31.8541379,10.1131216 31.8410017,10.1020789 31.8271741,10.0918291 C31.8253304,10.09047 31.8236019,10.088941 31.8217006,10.0875819 C31.8061446,10.0764826 31.7896667,10.0665725 31.7726703,10.0575119 C31.7693862,10.0557564 31.7661022,10.0541708 31.7627605,10.0525285 C31.7454184,10.0439209 31.727673,10.0360495 31.7090633,10.0297636 C31.7089481,10.029707 31.7088329,10.0296504 31.7087176,10.0296504 C31.6902232,10.0234212 31.6710374,10.018721 31.651506,10.0149268 C31.6471848,10.0140774 31.6428637,10.0133412 31.638485,10.0126617 C31.6189535,10.0094904 31.5991339,10.007112 31.5787958,10.0066024 C27.9606894,9.91458015 23.242828,10.7706415 20.8576249,13.4469305 C19.8137564,14.6181891 19.3320951,16.1041354 18.8663354,17.5410976 C18.8281943,17.6587161 18.7901108,17.776278 18.7516816,17.89367 C18.7500684,17.8985968 18.7485128,17.9035801 18.7470724,17.9086201 L18.0162838,20.4597022 C17.9515822,20.6855955 18.0854794,20.9203796 18.3153056,20.9840306 C18.3544838,20.9949034 18.3939501,21 18.432725,21 C18.6215293,21 18.7950657,20.8774547 18.8487629,20.6900126 L19.5265457,18.3239376 C20.3551069,17.9422578 21.0222885,17.763763 21.9235023,17.5229196 C22.3909903,17.3978827 22.9208754,17.2563101 23.5620727,17.0624688 C24.9482895,16.6434139 27.6075671,14.8901784 28.8314248,13.5884465 C29.9017962,12.4498628 30.8024914,11.6037115 31.8430182,10.7592024 C31.8442281,10.7582397 31.84515,10.7570505 31.8463599,10.7560312 C31.8615126,10.7434029 31.8759164,10.7299819 31.8891678,10.7154282 C31.8899744,10.7145221 31.8908386,10.7137293 31.8916453,10.7128799 C31.9047239,10.6983262 31.9165925,10.6826966 31.927597,10.6663874 C31.9296135,10.6633861 31.9315724,10.6603847 31.9335314,10.6573268 C31.9542728,10.6248783 31.9706354,10.5895984 31.9819279,10.5519967 C31.9830226,10.5484291 31.9840597,10.5449181 31.9850392,10.5412939 C31.9900517,10.5228328 31.9941999,10.5040319 31.9966774,10.4846648 C31.9967926,10.483872 31.9967926,10.4831358 31.9968502,10.482343 C31.9984635,10.4692051 31.9996158,10.4558972 31.9999614,10.4424195 C32.0001343,10.4375494 31.9996734,10.4327926 31.9996158,10.4280358 Z M21.2974297,13.9091984 C22.3671295,12.7751456 24.0066745,11.9202984 26.1705678,11.3684833 C26.7521088,11.2201801 27.3666549,11.0971249 28,11 C26.3907047,11.7247407 24.8519511,12.632472 23.9920396,13.1659198 C22.6042895,14.0268515 21.1062566,15.0711719 20,16 C20.3273579,15.2299381 20.7231144,14.5180489 21.2974297,13.9091984 Z M27.9862173,12.9341744 C26.7462559,14.2151691 24.0682297,15.8647225 22.8974216,16.2084319 C22.2440338,16.4002405 21.7000438,16.541549 21.2200491,16.6661386 C20.7857567,16.7788763 20.3906892,16.881594 20,17 C20.1747725,16.8401977 20.3796535,16.6610428 20.6211802,16.4599015 C21.593165,15.6505268 22.8511195,14.7438736 24.1633529,13.9070158 C26.4353959,12.4580311 28.4915223,11.4409306 30,11 C29.3448729,11.5759982 28.7004816,12.1961982 27.9862173,12.9341744 Z" id="Shape" fill-rule="nonzero"></path>
                </g>
            </g>
        </g>
    </g>
</svg>