<?xml version="1.0" encoding="UTF-8"?>
<svg width="56px" height="56px" viewBox="0 0 56 56" version="1.1" xmlns="http://www.w3.org/2000/svg" xmlns:xlink="http://www.w3.org/1999/xlink">
    <!-- Generator: Sketch 52.2 (67145) - http://www.bohemiancoding.com/sketch -->
    <title>Group 20</title>
    <desc>Created with Sketch.</desc>
    <g id="bookfast" stroke="none" stroke-width="1" fill="none" fill-rule="evenodd">
        <g id="Bookfast" transform="translate(-84.000000, -4102.000000)" fill-rule="nonzero">
            <g id="Group-20" transform="translate(85.000000, 4103.000000)">
                <circle id="Oval-Copy-4" stroke="#C9C9C9" cx="27" cy="27" r="27"></circle>
                <g id="004-reload" transform="translate(14.000000, 12.000000)" fill="#6E6E6E">
                    <path d="M12.7904189,26.8906824 L11.5516331,25.1021335 C11.3265751,24.7805112 11.408473,24.3385972 11.7463823,24.1170071 C12.0739738,23.8960501 12.5137717,23.9865854 12.7394745,24.3082077 L14.7353319,27.192045 C14.9397541,27.4535213 14.9300812,27.8251596 14.7043784,28.086636 L12.349976,30.7596461 C12.0939646,31.0508788 11.6438488,31.0812683 11.336893,30.8299218 C11.0402551,30.5684454 11.0093015,30.1265314 11.265313,29.8251688 L12.6163053,28.2974632 C12.1661895,28.2873333 11.7257466,28.2474471 11.2756308,28.1866681 C10.5695036,28.0961327 9.8633763,27.9454514 9.15660418,27.7244944 C5.72785661,26.6792221 3.04586278,24.3683536 1.50076607,21.4737534 C-0.05529334,18.5797863 -0.474455635,15.1027206 0.58957173,11.7358168 C1.25507248,9.63577547 2.42163339,7.81683706 3.91578576,6.37966678 C5.47184517,4.89248045 7.3858047,3.80732192 9.46355996,3.23435315 C9.84209575,3.12355809 10.2412672,3.34514822 10.3541186,3.71678652 C10.46697,4.09855466 10.2412672,4.49045264 9.85241359,4.59111787 C8.01003409,5.11343746 6.30049679,6.0783042 4.92886879,7.39454958 C3.5881943,8.67090873 2.5544756,10.2783868 1.97087271,12.1479744 C1.01905187,15.1426068 1.39758766,18.2379043 2.76921567,20.8102492 C4.15116151,23.3825941 6.5255547,25.4427492 9.57576648,26.3772264 C10.2103137,26.568427 10.8448609,26.6988486 11.4690903,26.789384 C11.910178,26.850163 12.349976,26.8805526 12.7904189,26.8906824 Z M16.53644,27.7650137 C16.1579042,27.8758088 15.7587328,27.6542187 15.6458814,27.2724505 C15.5433478,26.9008122 15.7587328,26.5089142 16.1475864,26.3981192 C18.0002838,25.8852963 19.6995032,24.9210627 21.0808042,23.5946875 C22.4111608,22.3183283 23.4448795,20.7108502 24.0388003,18.8513924 C24.9803033,15.8466303 24.6017675,12.7614625 23.2301395,10.1789878 C21.8488385,7.60600987 19.4738004,5.54585477 16.4242335,4.62150737 C15.7896863,4.43030674 15.1654569,4.28975529 14.5309097,4.20934973 C14.0904668,4.14920384 13.6506689,4.11881433 13.2205439,4.1086845 L14.4490118,5.89723341 C14.6740697,6.21885566 14.5921719,6.66076969 14.2645804,6.87222998 C13.9369889,7.093187 13.4868731,7.01278144 13.2618152,6.69115919 L11.2659578,3.79719209 C11.0615356,3.53571573 11.0712086,3.16407743 11.2969114,2.91273091 L13.650024,0.240353931 C13.9060354,-0.0508788122 14.3664691,-0.0812683158 14.663107,0.170078204 C14.9597449,0.421424723 15.0010163,0.87346859 14.734687,1.16470133 L13.3836947,2.69240701 C13.8338105,2.71266667 14.2742534,2.74242306 14.7243692,2.80320207 C15.4304964,2.9038673 16.1366237,3.05454859 16.8433958,3.26537577 C20.2824612,4.32077791 22.9541372,6.63164641 24.4992339,9.52624663 C26.0552933,12.4202137 26.4744556,15.8972794 25.4104283,19.2641832 C24.7449275,21.3642245 23.5783666,23.1730331 22.0842142,24.6102034 C20.5281548,26.0967566 18.6141953,27.1819151 16.53644,27.7650137 Z" id="Shape"></path>
                </g>
            </g>
        </g>
    </g>
</svg>