<?xml version="1.0" encoding="UTF-8"?>
<svg width="56px" height="56px" viewBox="0 0 56 56" version="1.1" xmlns="http://www.w3.org/2000/svg" xmlns:xlink="http://www.w3.org/1999/xlink">
    <!-- Generator: Sketch 52.2 (67145) - http://www.bohemiancoding.com/sketch -->
    <title>Group 17</title>
    <desc>Created with Sketch.</desc>
    <g id="bookfast" stroke="none" stroke-width="1" fill="none" fill-rule="evenodd">
        <g id="Bookfast" transform="translate(-84.000000, -3868.000000)">
            <g id="Group-17" transform="translate(85.000000, 3869.000000)">
                <circle id="Oval" stroke="#C9C9C9" fill-rule="nonzero" cx="27" cy="27" r="27"></circle>
                <g id="001-calendar" transform="translate(14.000000, 14.000000)" fill="#6E6E6E">
                    <path d="M19.2305862,1.8245614 C19.0221379,0.785017544 18.117069,0 17.0344828,0 C16.7870345,0 16.5862069,0.203894737 16.5862069,0.456140351 C16.5862069,0.708385965 16.7870345,0.912280702 17.0344828,0.912280702 C17.775931,0.912280702 18.3793103,1.52624561 18.3793103,2.28070175 C18.3793103,3.03515789 17.775931,3.64912281 17.0344828,3.64912281 C16.7870345,3.64912281 16.5862069,3.85301754 16.5862069,4.10526316 C16.5862069,4.35750877 16.7870345,4.56140351 17.0344828,4.56140351 C18.1166207,4.56140351 19.0221379,3.77638596 19.2305862,2.73684211 L25.1034483,2.73684211 L25.1034483,6.84210526 L0.896551724,6.84210526 L0.896551724,2.73684211 L7.17241379,2.73684211 L8.51724138,2.73684211 C8.76468966,2.73684211 8.96551724,2.53294737 8.96551724,2.28070175 C8.96551724,2.02845614 8.76468966,1.8245614 8.51724138,1.8245614 L7.70317241,1.8245614 C7.88875862,1.29452632 8.38186207,0.912280702 8.96551724,0.912280702 C9.70696552,0.912280702 10.3103448,1.52624561 10.3103448,2.28070175 C10.3103448,3.03515789 9.70696552,3.64912281 8.96551724,3.64912281 C8.71806897,3.64912281 8.51724138,3.85301754 8.51724138,4.10526316 C8.51724138,4.35750877 8.71806897,4.56140351 8.96551724,4.56140351 C10.2014138,4.56140351 11.2068966,3.5382807 11.2068966,2.28070175 C11.2068966,1.02312281 10.2014138,0 8.96551724,0 C7.88337931,0 6.97786207,0.785017544 6.76941379,1.8245614 L0,1.8245614 L0,7.75438596 L0,26 L26,26 L26,7.75438596 L26,1.8245614 L19.2305862,1.8245614 Z M25.1034483,25.0877193 L0.896551724,25.0877193 L0.896551724,7.75438596 L25.1034483,7.75438596 L25.1034483,25.0877193 Z" id="Shape" fill-rule="nonzero"></path>
                    <path d="M11.5,0.8 C12.327,0.8 13,1.3384 13,2 C13,2.6616 12.327,3.2 11.5,3.2 C11.224,3.2 11,3.3788 11,3.6 C11,3.8212 11.224,4 11.5,4 C12.8785,4 14,3.1028 14,2 C14,0.8972 12.8785,0 11.5,0 C11.224,0 11,0.1788 11,0.4 C11,0.6212 11.224,0.8 11.5,0.8 Z" id="Path"></path>
                    <path d="M14.5,0.8 C15.327,0.8 16,1.3384 16,2 C16,2.6616 15.327,3.2 14.5,3.2 C14.224,3.2 14,3.3788 14,3.6 C14,3.8212 14.224,4 14.5,4 C15.8785,4 17,3.1028 17,2 C17,0.8972 15.8785,0 14.5,0 C14.224,0 14,0.1788 14,0.4 C14,0.6212 14.224,0.8 14.5,0.8 Z" id="Path"></path>
                    <path d="M5.5,15 C6.87875,15 8,13.87875 8,12.5 C8,11.12125 6.87875,10 5.5,10 C4.12125,10 3,11.12125 3,12.5 C3,13.87875 4.12125,15 5.5,15 Z M5.5,10.8333333 C6.41916667,10.8333333 7.16666667,11.5808333 7.16666667,12.5 C7.16666667,13.4191667 6.41916667,14.1666667 5.5,14.1666667 C4.58083333,14.1666667 3.83333333,13.4191667 3.83333333,12.5 C3.83333333,11.5808333 4.58083333,10.8333333 5.5,10.8333333 Z" id="Shape" fill-rule="nonzero"></path>
                    <path d="M12.5,15 C13.87875,15 15,13.87875 15,12.5 C15,11.12125 13.87875,10 12.5,10 C11.12125,10 10,11.12125 10,12.5 C10,13.87875 11.12125,15 12.5,15 Z M12.5,10.8333333 C13.4191667,10.8333333 14.1666667,11.5808333 14.1666667,12.5 C14.1666667,13.4191667 13.4191667,14.1666667 12.5,14.1666667 C11.5808333,14.1666667 10.8333333,13.4191667 10.8333333,12.5 C10.8333333,11.5808333 11.5808333,10.8333333 12.5,10.8333333 Z" id="Shape" fill-rule="nonzero"></path>
                    <path d="M20.5,15 C21.87875,15 23,13.87875 23,12.5 C23,11.12125 21.87875,10 20.5,10 C19.12125,10 18,11.12125 18,12.5 C18,13.87875 19.12125,15 20.5,15 Z M20.5,10.8333333 C21.4191667,10.8333333 22.1666667,11.5808333 22.1666667,12.5 C22.1666667,13.4191667 21.4191667,14.1666667 20.5,14.1666667 C19.5808333,14.1666667 18.8333333,13.4191667 18.8333333,12.5 C18.8333333,11.5808333 19.5808333,10.8333333 20.5,10.8333333 Z" id="Shape" fill-rule="nonzero"></path>
                    <path d="M5.5,22 C6.87875,22 8,20.87875 8,19.5 C8,18.12125 6.87875,17 5.5,17 C4.12125,17 3,18.12125 3,19.5 C3,20.87875 4.12125,22 5.5,22 Z M5.5,17.8333333 C6.41916667,17.8333333 7.16666667,18.5808333 7.16666667,19.5 C7.16666667,20.4191667 6.41916667,21.1666667 5.5,21.1666667 C4.58083333,21.1666667 3.83333333,20.4191667 3.83333333,19.5 C3.83333333,18.5808333 4.58083333,17.8333333 5.5,17.8333333 Z" id="Shape" fill-rule="nonzero"></path>
                    <path d="M12.5,22 C13.87875,22 15,20.87875 15,19.5 C15,18.12125 13.87875,17 12.5,17 C11.12125,17 10,18.12125 10,19.5 C10,20.87875 11.12125,22 12.5,22 Z M12.5,17.8333333 C13.4191667,17.8333333 14.1666667,18.5808333 14.1666667,19.5 C14.1666667,20.4191667 13.4191667,21.1666667 12.5,21.1666667 C11.5808333,21.1666667 10.8333333,20.4191667 10.8333333,19.5 C10.8333333,18.5808333 11.5808333,17.8333333 12.5,17.8333333 Z" id="Shape" fill-rule="nonzero"></path>
                    <circle id="Oval" cx="20.5" cy="21.5" r="1"></circle>
                    <circle id="Oval" cx="18.5" cy="21.5" r="1"></circle>
                    <circle id="Oval" cx="21.5" cy="21.5" r="1"></circle>
                    <circle id="Oval" cx="21.5" cy="17.5" r="1"></circle>
                    <circle id="Oval" cx="18.5" cy="17.5" r="1"></circle>
                    <circle id="Oval" cx="19.5" cy="18.5" r="1"></circle>
                    <circle id="Oval" cx="21.5" cy="18.5" r="1"></circle>
                    <circle id="Oval" cx="20.5" cy="19.5" r="1"></circle>
                    <circle id="Oval" cx="19.5" cy="20.5" r="1"></circle>
                    <circle id="Oval" cx="21.5" cy="20.5" r="1"></circle>
                    <circle id="Oval" cx="22.5" cy="19.5" r="1"></circle>
                    <circle id="Oval" cx="17.5" cy="19.5" r="1"></circle>
                    <circle id="Oval" cx="20.5" cy="17.5" r="1"></circle>
                </g>
            </g>
        </g>
    </g>
</svg>