<?xml version="1.0" encoding="UTF-8"?>
<svg width="56px" height="56px" viewBox="0 0 56 56" version="1.1" xmlns="http://www.w3.org/2000/svg" xmlns:xlink="http://www.w3.org/1999/xlink">
    <!-- Generator: Sketch 52.2 (67145) - http://www.bohemiancoding.com/sketch -->
    <title>Group 18</title>
    <desc>Created with Sketch.</desc>
    <g id="bookfast" stroke="none" stroke-width="1" fill="none" fill-rule="evenodd">
        <g id="Bookfast" transform="translate(-84.000000, -3946.000000)">
            <g id="Group-18" transform="translate(85.000000, 3947.000000)">
                <circle id="Oval-Copy-2" stroke="#C9C9C9" fill-rule="nonzero" cx="27" cy="27" r="27"></circle>
                <g id="002-warning-sign" transform="translate(12.000000, 14.000000)" fill="#6E6E6E">
                    <path d="M29.853683,24.8708755 L15.6079616,0.350759675 C15.4819164,0.13354537 15.2487083,0 14.996618,0 C14.7445276,0 14.5112377,0.133626602 14.3851926,0.350759675 L0.0945951929,24.9474773 C-0.031531731,25.1646916 -0.031531731,25.432026 0.0945951929,25.6492403 C0.220640375,25.8664546 0.453848486,26 0.706020592,26 L29.2868883,26 C29.2891771,26 29.2915476,26 29.2939181,26 C29.6838244,26 30,25.6862009 30,25.298237 C30,25.1372352 29.945315,24.989393 29.853683,24.8708755 Z M1.92903487,24.5967176 L14.996618,2.10480175 L28.0641193,24.5967176 L1.92903487,24.5967176 Z" id="Shape" fill-rule="nonzero"></path>
                    <path d="M14,8.73418905 L14,19.2657259 C14,19.6714553 14.447699,20 15.0000579,20 C15.552301,20 16,19.6716253 16,19.2657259 L16,8.73418905 C16,8.32905474 15.552301,8 15.0000579,8 C14.447699,8.00008501 14,8.32913975 14,8.73418905 Z" id="Path"></path>
                    <path d="M15,21 C14.4478322,21 14,21.4475316 14,21.9996737 C14,22.5518158 14.4478322,23 15,23 C15.5520746,23 16,22.5516293 16,21.9996737 C16,21.4475316 15.5521678,21 15,21 Z" id="Path"></path>
                </g>
            </g>
        </g>
    </g>
</svg>