<?xml version="1.0" encoding="UTF-8"?>
<svg width="56px" height="56px" viewBox="0 0 56 56" version="1.1" xmlns="http://www.w3.org/2000/svg" xmlns:xlink="http://www.w3.org/1999/xlink">
    <!-- Generator: Sketch 52.2 (67145) - http://www.bohemiancoding.com/sketch -->
    <title>Group 21</title>
    <desc>Created with Sketch.</desc>
    <g id="bookfast" stroke="none" stroke-width="1" fill="none" fill-rule="evenodd">
        <g id="Bookfast" transform="translate(-84.000000, -4180.000000)">
            <g id="Group-21" transform="translate(85.000000, 4181.000000)">
                <circle id="Oval-Copy-5" stroke="#C9C9C9" fill-rule="nonzero" cx="27" cy="27" r="27"></circle>
                <g id="005-close" transform="translate(14.000000, 14.000000)" fill="#6E6E6E">
                    <path d="M23.1636364,3.85185185 L23.1636364,0 L0,0 L0,22.6296296 L3.30909091,22.6296296 L3.30909091,26 L26,26 L26,3.85185185 L23.1636364,3.85185185 Z M0.945454545,21.6666667 L0.945454545,0.962962963 L22.2181818,0.962962963 L22.2181818,3.85185185 L3.30909091,3.85185185 L3.30909091,21.6666667 L0.945454545,21.6666667 Z M25.0545455,25.037037 L4.25454545,25.037037 L4.25454545,22.6296296 L4.25454545,4.81481481 L23.1636364,4.81481481 L25.0545455,4.81481481 L25.0545455,25.037037 Z" id="Shape" fill-rule="nonzero"></path>
                    <path d="M18.8663743,11.1336276 C18.6882066,10.9554575 18.4002221,10.9554575 18.2220545,11.1336276 L15,14.355728 L11.7779455,11.1336276 C11.5997779,10.9554575 11.3117934,10.9554575 11.1336257,11.1336276 C10.9554581,11.3117978 10.9554581,11.5997864 11.1336257,11.7779566 L14.3556802,15.000057 L11.1336257,18.2221574 C10.9554581,18.4003275 10.9554581,18.6883161 11.1336257,18.8664863 C11.2224817,18.9553435 11.3391337,19 11.4557856,19 C11.5724376,19 11.6890895,18.9553435 11.7779455,18.8664863 L15,15.6443859 L18.2220545,18.8664863 C18.3109105,18.9553435 18.4275624,19 18.5442144,19 C18.6608663,19 18.7775183,18.9553435 18.8663743,18.8664863 C19.0445419,18.6883161 19.0445419,18.4003275 18.8663743,18.2221574 L15.6443198,15.000057 L18.8663743,11.7779566 C19.0445419,11.5997864 19.0445419,11.3113421 18.8663743,11.1336276 Z" id="Path"></path>
                </g>
            </g>
        </g>
    </g>
</svg>