<?xml version="1.0" encoding="UTF-8"?>
<svg width="65px" height="65px" viewBox="0 0 65 65" version="1.1" xmlns="http://www.w3.org/2000/svg" xmlns:xlink="http://www.w3.org/1999/xlink">
    <!-- Generator: Sketch 52.2 (67145) - http://www.bohemiancoding.com/sketch -->
    <title>XD</title>
    <desc>Created with Sketch.</desc>
    <g id="XD" stroke="none" stroke-width="1" fill="none" fill-rule="evenodd">
        <g id="002-wireframe" transform="translate(10.000000, 10.000000)" fill="#7E7E7E">
            <path d="M27.1328125,3.59375 C26.6369171,3.59375 26.234375,3.99629214 26.234375,4.4921875 C26.234375,4.98808286 26.6369171,5.390625 27.1328125,5.390625 C27.6287079,5.390625 28.03125,4.98808286 28.03125,4.4921875 C28.03125,3.99629214 27.6287079,3.59375 27.1328125,3.59375 Z" id="Path"></path>
            <path d="M34.3203125,3.59375 L30.7265625,3.59375 C30.2303161,3.59375 29.828125,3.99594112 29.828125,4.4921875 C29.828125,4.98843388 30.2303161,5.390625 30.7265625,5.390625 L34.3203125,5.390625 C34.8165589,5.390625 35.21875,4.98843388 35.21875,4.4921875 C35.21875,3.99594112 34.8165589,3.59375 34.3203125,3.59375 Z" id="Path"></path>
            <path d="M41.5078125,3.59375 L37.9140625,3.59375 C37.4178161,3.59375 37.015625,3.99594112 37.015625,4.4921875 C37.015625,4.98843388 37.4178161,5.390625 37.9140625,5.390625 L41.5078125,5.390625 C42.0040589,5.390625 42.40625,4.98843388 42.40625,4.4921875 C42.40625,3.99594112 42.0040589,3.59375 41.5078125,3.59375 Z" id="Path"></path>
            <path d="M43.3046875,0 L2.6953125,0 C1.20903013,0 0,1.20903013 0,2.6953125 L0,43.3046875 C0,44.7909699 1.20903013,46 2.6953125,46 L43.3046875,46 C44.7909699,46 46,44.7909699 46,43.3046875 L46,2.6953125 C46,1.20903013 44.7909699,0 43.3046875,0 Z M44.203125,43.3046875 C44.203125,43.8002319 43.8002319,44.203125 43.3046875,44.203125 L2.6953125,44.203125 C2.19976807,44.203125 1.796875,43.8002319 1.796875,43.3046875 L1.796875,8.984375 L44.203125,8.984375 L44.203125,43.3046875 Z M44.203125,7.1875 L1.796875,7.1875 L1.796875,2.6953125 C1.796875,2.19976807 2.19976807,1.796875 2.6953125,1.796875 L43.3046875,1.796875 C43.8002319,1.796875 44.203125,2.19976807 44.203125,2.6953125 L44.203125,7.1875 Z" id="Shape" fill-rule="nonzero"></path>
            <path d="M6.828125,20.3046875 L39.171875,20.3046875 C39.6681214,20.3046875 40.0703125,19.9024964 40.0703125,19.40625 L40.0703125,14.015625 C40.0703125,13.5193786 39.6681214,13.1171875 39.171875,13.1171875 L6.828125,13.1171875 C6.33187862,13.1171875 5.9296875,13.5193786 5.9296875,14.015625 L5.9296875,19.40625 C5.9296875,19.9024964 6.33187862,20.3046875 6.828125,20.3046875 Z M7.7265625,14.9140625 L38.2734375,14.9140625 L38.2734375,18.5078125 L7.7265625,18.5078125 L7.7265625,14.9140625 Z" id="Shape" fill-rule="nonzero"></path>
            <path d="M6.828125,40.3398438 L17.609375,40.3398438 C18.1056214,40.3398438 18.5078125,39.9376526 18.5078125,39.4414062 L18.5078125,25.0664062 C18.5078125,24.5701599 18.1056214,24.1679688 17.609375,24.1679688 L6.828125,24.1679688 C6.33187862,24.1679688 5.9296875,24.5701599 5.9296875,25.0664062 L5.9296875,39.4414062 C5.9296875,39.9376526 6.33187862,40.3398438 6.828125,40.3398438 Z M7.7265625,25.9648438 L16.7109375,25.9648438 L16.7109375,38.5429688 L7.7265625,38.5429688 L7.7265625,25.9648438 Z" id="Shape" fill-rule="nonzero"></path>
            <path d="M39.171875,24.1679688 L23,24.1679688 C22.9912262,24.1679688 22.9828034,24.1690216 22.9740296,24.1693726 C22.4809417,24.1834106 22.1015625,24.5901642 22.1015625,25.0664062 L22.1015625,39.4414062 C22.1015625,39.4466706 22.1022644,39.4519349 22.1022644,39.4571991 C22.1110382,39.9530944 22.5181427,40.3398438 23,40.3398438 L39.171875,40.3398438 C39.656189,40.3398438 40.0608368,39.9516907 40.0696106,39.4571991 C40.0696106,39.4519349 40.0703125,39.4466706 40.0703125,39.4414063 L40.0703125,25.0664063 C40.0703125,24.5757751 39.6702271,24.1679688 39.171875,24.1679688 Z M36.8089142,25.9648438 L31.0859375,31.0518952 L25.3629608,25.9648438 L36.8089142,25.9648438 Z M23.8984375,27.0671844 L29.7337189,32.2539062 L23.8984375,37.4406281 L23.8984375,27.0671844 Z M25.3629608,38.5429688 L31.0859375,33.4559173 L36.8089142,38.5429688 L25.3629608,38.5429688 Z M38.2734375,37.4406281 L32.4381561,32.2539062 L38.2734375,27.0671844 L38.2734375,37.4406281 Z" id="Shape" fill-rule="nonzero"></path>
        </g>
        <rect id="Rectangle" stroke="#7E7E7E" fill-rule="nonzero" x="10.5" y="10.5" width="45" height="45"></rect>
    </g>
</svg>