<?xml version="1.0" encoding="UTF-8"?>
<svg width="65px" height="65px" viewBox="0 0 65 65" version="1.1" xmlns="http://www.w3.org/2000/svg" xmlns:xlink="http://www.w3.org/1999/xlink">
    <!-- Generator: Sketch 52.2 (67145) - http://www.bohemiancoding.com/sketch -->
    <title>sketch</title>
    <desc>Created with Sketch.</desc>
    <g id="sketch" stroke="none" stroke-width="1" fill="none" fill-rule="evenodd">
        <g id="003-web" transform="translate(8.000000, 8.000000)" fill="#7E7E7E" fill-rule="nonzero">
            <path d="M50,0 L0,0 L0,37.0967742 L8.71532258,37.0967742 C7.3733871,39.5508065 6.5733871,42.341129 6.46854839,45.3048387 C5.5233871,45.633871 4.83870968,46.5241935 4.83870968,47.5806452 C4.83870968,48.9145161 5.92419355,50 7.25806452,50 C8.59193548,50 9.67741935,48.9145161 9.67741935,47.5806452 C9.67741935,46.5427419 9.01693548,45.6629032 8.09758065,45.3201613 C8.21209677,42.3112903 9.11048387,39.5072581 10.6016129,37.0967742 L16.1677419,37.0967742 C16.3282258,38.883871 17.025,40.5540323 18.1717742,41.9354839 L16.9354839,41.9354839 L16.9354839,43.5483871 L18.5483871,43.5483871 L18.5483871,45.1612903 L16.9354839,45.1612903 L16.9354839,46.7741935 L18.5483871,46.7741935 L18.5483871,50 L31.4516129,50 L31.4516129,46.7741935 L33.0645161,46.7741935 L33.0645161,45.1612903 L31.4516129,45.1612903 L31.4516129,43.5483871 L33.0645161,43.5483871 L33.0645161,41.9354839 L31.8290323,41.9354839 C32.9758065,40.5540323 33.6725806,38.883871 33.8330645,37.0967742 L39.3991935,37.0967742 C40.8895161,39.5072581 41.7887097,42.3112903 41.9032258,45.3201613 C40.9830645,45.6629032 40.3225806,46.5427419 40.3225806,47.5806452 C40.3225806,48.9145161 41.4080645,50 42.7419355,50 C44.0758065,50 45.1612903,48.9145161 45.1612903,47.5806452 C45.1612903,46.5241935 44.4766129,45.633871 43.5314516,45.3048387 C43.4266129,42.341129 42.6274194,39.5508065 41.2846774,37.0967742 L50,37.0967742 L50,0 Z M7.25806452,48.3870968 C6.81370968,48.3870968 6.4516129,48.025 6.4516129,47.5806452 C6.4516129,47.1362903 6.81370968,46.7741935 7.25806452,46.7741935 C7.70241935,46.7741935 8.06451613,47.1362903 8.06451613,47.5806452 C8.06451613,48.025 7.70241935,48.3870968 7.25806452,48.3870968 Z M42.7419355,46.7741935 C43.1862903,46.7741935 43.5483871,47.1362903 43.5483871,47.5806452 C43.5483871,48.025 43.1862903,48.3870968 42.7419355,48.3870968 C42.2975806,48.3870968 41.9354839,48.025 41.9354839,47.5806452 C41.9354839,47.1362903 42.2975806,46.7741935 42.7419355,46.7741935 Z M11.7258065,35.483871 C13.4830645,33.2629032 15.775,31.4830645 18.4185484,30.3637097 C17.1701613,31.7483871 16.3483871,33.5225806 16.1701613,35.483871 L11.7258065,35.483871 Z M29.8387097,48.3870968 L20.1612903,48.3870968 L20.1612903,46.7741935 L29.8387097,46.7741935 L29.8387097,48.3870968 Z M29.8387097,45.1612903 L20.1612903,45.1612903 L20.1612903,43.5483871 L29.8387097,43.5483871 L29.8387097,45.1612903 Z M30.0806452,41.4693548 L29.8387097,41.7064516 L29.8387097,41.9354839 L25.8064516,41.9354839 L25.8064516,39.4016129 C27.1935484,39.041129 28.2258065,37.7887097 28.2258065,36.2903226 C28.2258065,34.5112903 26.7790323,33.0645161 25,33.0645161 C23.2209677,33.0645161 21.7741935,34.5112903 21.7741935,36.2903226 C21.7741935,37.7887097 22.8064516,39.041129 24.1935484,39.4016129 L24.1935484,41.9354839 L20.1612903,41.9354839 L20.1612903,41.7064516 L19.9193548,41.4693548 C18.5153226,40.091129 17.7419355,38.2524194 17.7419355,36.2903226 C17.7419355,32.2887097 20.9983871,29.0322581 25,29.0322581 C29.0016129,29.0322581 32.2580645,32.2887097 32.2580645,36.2903226 C32.2580645,38.2524194 31.4846774,40.091129 30.0806452,41.4693548 Z M25,37.9032258 C24.1104839,37.9032258 23.3870968,37.1798387 23.3870968,36.2903226 C23.3870968,35.4008065 24.1104839,34.6774194 25,34.6774194 C25.8895161,34.6774194 26.6129032,35.4008065 26.6129032,36.2903226 C26.6129032,37.1798387 25.8895161,37.9032258 25,37.9032258 Z M33.8298387,35.483871 C33.6516129,33.5225806 32.8298387,31.7483871 31.5814516,30.3637097 C34.2241935,31.4830645 36.5169355,33.2629032 38.2741935,35.483871 L33.8298387,35.483871 Z M48.3870968,35.483871 L40.2903226,35.483871 C38.3629032,32.6814516 35.6854839,30.4354839 32.5508065,29.0322581 L42.083871,29.0322581 C42.4177419,29.9685484 43.3048387,30.6451613 44.3548387,30.6451613 C45.6887097,30.6451613 46.7741935,29.5596774 46.7741935,28.2258065 C46.7741935,26.8919355 45.6887097,25.8064516 44.3548387,25.8064516 C43.3048387,25.8064516 42.4177419,26.4830645 42.083871,27.4193548 L7.91612903,27.4193548 C7.58225806,26.4830645 6.69516129,25.8064516 5.64516129,25.8064516 C4.31129032,25.8064516 3.22580645,26.8919355 3.22580645,28.2258065 C3.22580645,29.5596774 4.31129032,30.6451613 5.64516129,30.6451613 C6.69516129,30.6451613 7.58225806,29.9685484 7.91612903,29.0322581 L17.4491935,29.0322581 C14.3145161,30.4354839 11.6370968,32.6814516 9.70967742,35.483871 L1.61290323,35.483871 L1.61290323,8.06451613 L48.3870968,8.06451613 L48.3870968,35.483871 Z M43.5483871,28.2258065 C43.5483871,27.7814516 43.9104839,27.4193548 44.3548387,27.4193548 C44.7991935,27.4193548 45.1612903,27.7814516 45.1612903,28.2258065 C45.1612903,28.6701613 44.7991935,29.0322581 44.3548387,29.0322581 C43.9104839,29.0322581 43.5483871,28.6701613 43.5483871,28.2258065 Z M6.4516129,28.2258065 C6.4516129,28.6701613 6.08951613,29.0322581 5.64516129,29.0322581 C5.20080645,29.0322581 4.83870968,28.6701613 4.83870968,28.2258065 C4.83870968,27.7814516 5.20080645,27.4193548 5.64516129,27.4193548 C6.08951613,27.4193548 6.4516129,27.7814516 6.4516129,28.2258065 Z M48.3870968,6.4516129 L1.61290323,6.4516129 L1.61290323,1.61290323 L48.3870968,1.61290323 L48.3870968,6.4516129 Z" id="Shape"></path>
            <polygon id="Rectangle-path" points="4 3 9 3 9 5 4 5"></polygon>
            <polygon id="Rectangle-path" points="10 3 12 3 12 5 10 5"></polygon>
            <path d="M23,10 L9,10 L9,25 L23,25 L23,10 Z M21.25,23.3333333 L10.75,23.3333333 L10.75,11.6666667 L21.25,11.6666667 L21.25,23.3333333 Z" id="Shape"></path>
            <path d="M41,10 L27,10 L27,25 L41,25 L41,10 Z M39.25,23.3333333 L28.75,23.3333333 L28.75,11.6666667 L39.25,11.6666667 L39.25,23.3333333 Z" id="Shape-Copy"></path>
        </g>
    </g>
</svg>