<?xml version="1.0" encoding="UTF-8"?>
<svg width="65px" height="65px" viewBox="0 0 65 65" version="1.1" xmlns="http://www.w3.org/2000/svg" xmlns:xlink="http://www.w3.org/1999/xlink">
    <!-- Generator: Sketch 52.2 (67145) - http://www.bohemiancoding.com/sketch -->
    <title>zeplin</title>
    <desc>Created with Sketch.</desc>
    <g id="zeplin" stroke="none" stroke-width="1" fill="none" fill-rule="evenodd">
        <g id="004-grid" transform="translate(6.000000, 6.000000)" fill="#7E7E7E" fill-rule="nonzero">
            <path d="M27,30 C26.4476737,30 26,30.3887733 26,30.8684302 L26,34.1315698 C26,34.6111183 26.447549,35 27,35 C27.5523263,35 28,34.6112267 28,34.1315698 L28,30.8684302 C28,30.3887733 27.5523263,30 27,30 Z" id="Shape"></path>
            <path d="M27,18 C26.4476737,18 26,18.3887733 26,18.8684302 L26,22.1315698 C26,22.6111183 26.447549,23 27,23 C27.5523263,23 28,22.6112267 28,22.1315698 L28,18.8684302 C28,18.3888817 27.5523263,18 27,18 Z" id="Shape"></path>
            <path d="M27,37 C26.4476737,37 26,37.3887733 26,37.8684302 L26,41.1315698 C26,41.6111183 26.447549,42 27,42 C27.5523263,42 28,41.6112267 28,41.1315698 L28,37.8684302 C28,37.3887733 27.5523263,37 27,37 Z" id="Shape"></path>
            <path d="M27,11 C26.4476737,11 26,11.3887733 26,11.8684302 L26,15.1315698 C26,15.6111183 26.447549,16 27,16 C27.5523263,16 28,15.6112267 28,15.1315698 L28,11.8684302 C28,11.3888817 27.5523263,11 27,11 Z" id="Shape"></path>
            <path d="M16.1315698,26 L12.8684302,26 C12.3887733,26 12,26.4476737 12,27 C12,27.5523263 12.388665,28 12.8684302,28 L16.1315698,28 C16.6112267,28 17,27.5523263 17,27 C17,26.4476737 16.6112267,26 16.1315698,26 Z" id="Shape"></path>
            <path d="M22.1315886,26 L18.8684114,26 C18.3887649,26 18,26.4476737 18,27 C18,27.5523263 18.3886566,28 18.8684114,28 L22.1315886,28 C22.6112351,28 23,27.5523263 23,27 C23,26.4476737 22.6112351,26 22.1315886,26 Z" id="Shape"></path>
            <path d="M29.1315698,25.6315698 L28.3684302,25.6315698 L28.3684302,24.8684302 C28.3684302,24.3888817 27.9797652,24 27.5,24 C27.0203432,24 26.6315698,24.3887733 26.6315698,24.8684302 L26.6315698,25.6315698 L25.8684302,25.6315698 C25.3887733,25.6315698 25,26.0203432 25,26.5 C25,26.9796568 25.388665,27.3684302 25.8684302,27.3684302 L26.6315698,27.3684302 L26.6315698,28.1315698 C26.6315698,28.6111183 27.0202348,29 27.5,29 C27.9796568,29 28.3684302,28.6112267 28.3684302,28.1315698 L28.3684302,27.3684302 L29.1315698,27.3684302 C29.6112267,27.3684302 30,26.9796568 30,26.5 C30,26.0203432 29.6111183,25.6315698 29.1315698,25.6315698 Z" id="Shape"></path>
            <path d="M41.1315886,26 L37.8684114,26 C37.3887649,26 37,26.4476737 37,27 C37,27.5523263 37.3886566,28 37.8684114,28 L41.1315886,28 C41.6112351,28 42,27.5523263 42,27 C42,26.4476737 41.6112351,26 41.1315886,26 Z" id="Shape"></path>
            <path d="M35.1315698,26 L31.8684302,26 C31.3887733,26 31,26.4476737 31,27 C31,27.5523263 31.388665,28 31.8684302,28 L35.1315698,28 C35.6112267,28 36,27.5523263 36,27 C36,26.4476737 35.6112267,26 35.1315698,26 Z" id="Shape"></path>
            <path d="M46.1643169,6 L7.83568305,6 C7.37411332,6 7,6.37832909 7,6.84510012 L7,45.1548999 C7,45.6215655 7.37400908,46 7.83568305,46 L46.1643169,46 C46.6258867,46 47,45.6216709 47,45.1548999 L47,6.84510012 C46.9998958,6.3784345 46.6258867,6 46.1643169,6 Z M45.3286339,25.1548999 L44.2701924,25.1548999 C43.8086226,25.1548999 43.4345093,25.533229 43.4345093,26 C43.4345093,26.466771 43.8085184,26.8451001 44.2701924,26.8451001 L45.3286339,26.8451001 L45.3286339,44.3097998 L27.8356831,44.3097998 L27.8356831,43.4646997 C27.8356831,42.998034 27.461674,42.6195995 27,42.6195995 C26.5384303,42.6195995 26.1643169,42.9979286 26.1643169,43.4646997 L26.1643169,44.3097998 L8.6713661,44.3097998 L8.6713661,26.8451001 L9.72991187,26.8451001 C10.1914816,26.8451001 10.5655949,26.466771 10.5655949,26 C10.5655949,25.533229 10.1915858,25.1548999 9.72991187,25.1548999 L8.6713661,25.1548999 L8.6713661,7.69020023 L26.1643169,7.69020023 L26.1643169,8.53530035 C26.1643169,9.00196596 26.538326,9.38040047 27,9.38040047 C27.4615697,9.38040047 27.8356831,9.00207138 27.8356831,8.53530035 L27.8356831,7.69020023 L45.3286339,7.69020023 L45.3286339,25.1548999 Z" id="Shape"></path>
            <path d="M47,0 C46.4476737,0 46,0.357192619 46,0.797886104 L46,4.2021139 C46,4.64270786 46.447549,5 47,5 C47.5523263,5 48,4.64280738 48,4.2021139 L48,0.797886104 C47.9998753,0.357292144 47.5523263,0 47,0 Z" id="Shape"></path>
            <path d="M53.2021139,6 L49.7978861,6 C49.3571926,6 49,6.44767369 49,7 C49,7.55232631 49.3570931,8 49.7978861,8 L53.2021139,8 C53.6428074,8 54,7.55232631 54,7 C54,6.44767369 53.6429069,6 53.2021139,6 Z" id="Shape"></path>
            <path d="M8,0 C7.44767369,0 7,0.357192619 7,0.797886104 L7,4.2021139 C7,4.64270786 7.44754896,5 8,5 C8.55232631,5 9,4.64280738 9,4.2021139 L9,0.797886104 C9,0.357292144 8.55245104,0 8,0 Z" id="Shape"></path>
            <path d="M4.20201437,6 L0.797886104,6 C0.357093095,6 0,6.44779843 0,7 C0,7.55220157 0.357093095,8 0.797886104,8 L4.2021139,8 C4.64280738,8 5,7.55232631 5,7 C5,6.44767369 4.64280738,6 4.20201437,6 Z" id="Shape"></path>
            <path d="M47,48 C46.4476737,48 46,48.3571926 46,48.7978861 L46,52.2021139 C46,52.6427079 46.447549,53 47,53 C47.5523263,53 48,52.6428074 48,52.2021139 L48,48.7978861 C47.9998753,48.3571926 47.5523263,48 47,48 Z" id="Shape"></path>
            <path d="M53.2021139,45 L49.7978861,45 C49.3571926,45 49,45.4476737 49,46 C49,46.5523263 49.3570931,47 49.7978861,47 L53.2021139,47 C53.6428074,47 54,46.5523263 54,46 C54,45.4476737 53.6429069,45 53.2021139,45 Z" id="Shape"></path>
            <path d="M8,48 C7.44767369,48 7,48.3571926 7,48.7978861 L7,52.2021139 C7,52.6427079 7.44754896,53 8,53 C8.55232631,53 9,52.6428074 9,52.2021139 L9,48.7978861 C9,48.3571926 8.55245104,48 8,48 Z" id="Shape"></path>
            <path d="M4.20201437,45 L0.797886104,45 C0.357192619,45 0,45.4476737 0,46 C0,46.5523263 0.357093095,47 0.797886104,47 L4.2021139,47 C4.64280738,47 5,46.5523263 5,46 C5,45.4476737 4.64280738,45 4.20201437,45 Z" id="Shape"></path>
        </g>
    </g>
</svg>