<?xml version="1.0" encoding="UTF-8"?>
<svg width="65px" height="65px" viewBox="0 0 65 65" version="1.1" xmlns="http://www.w3.org/2000/svg" xmlns:xlink="http://www.w3.org/1999/xlink">
    <!-- Generator: Sketch 52.2 (67145) - http://www.bohemiancoding.com/sketch -->
    <title>xmind</title>
    <desc>Created with Sketch.</desc>
    <g id="xmind" stroke="none" stroke-width="1" fill="none" fill-rule="evenodd">
        <g id="001-sitemap" transform="translate(10.000000, 10.000000)" fill="#7E7E7E" fill-rule="nonzero">
            <path d="M41.1681301,34.4663415 L41.1681301,23.4333537 L23.9349593,23.4333537 L23.9349593,15.318374 L35.4237398,15.318374 L35.4237398,0 L10.5313821,0 L10.5313821,15.318374 L22.0201626,15.318374 L22.0201626,23.4333537 L4.78699187,23.4333537 L4.78699187,34.4663415 L0,34.4663415 L0,45.955122 L11.4887805,45.955122 L11.4887805,34.4663415 L6.70178862,34.4663415 L6.70178862,25.3481504 L22.0201626,25.3481504 L22.0201626,34.4663415 L17.2331707,34.4663415 L17.2331707,45.955122 L28.7219512,45.955122 L28.7219512,34.4663415 L23.9349593,34.4663415 L23.9349593,25.3481504 L39.2533333,25.3481504 L39.2533333,34.4663415 L34.4663415,34.4663415 L34.4663415,45.955122 L45.955122,45.955122 L45.955122,34.4663415 L41.1681301,34.4663415 Z M9.57398374,36.3811382 L9.57398374,44.0403252 L1.91479675,44.0403252 L1.91479675,36.3811382 L9.57398374,36.3811382 Z M26.8071545,36.3811382 L26.8071545,44.0403252 L19.1479675,44.0403252 L19.1479675,36.3811382 L26.8071545,36.3811382 Z M12.4461789,13.4035772 L12.4461789,1.91479675 L33.5089431,1.91479675 L33.5089431,13.4035772 L12.4461789,13.4035772 Z M44.0403252,44.0403252 L36.3811382,44.0403252 L36.3811382,36.3811382 L44.0403252,36.3811382 L44.0403252,44.0403252 Z" id="Shape"></path>
        </g>
    </g>
</svg>